<?xml version="1.0" standalone="no"?>
<!DOCTYPE svg PUBLIC "-//W3C//DTD SVG 20010904//EN"
 "http://www.w3.org/TR/2001/REC-SVG-20010904/DTD/svg10.dtd">
<svg version="1.0" xmlns="http://www.w3.org/2000/svg"
 width="648.000000pt" height="648.000000pt" viewBox="0 0 648.000000 648.000000"
 preserveAspectRatio="xMidYMid meet">
<metadata>
Created by potrace 1.14, written by Peter Selinger 2001-2017
</metadata>
<g transform="translate(0.000000,648.000000) scale(0.100000,-0.100000)"
fill="#000000" stroke="none">
<path d="M3986 5863 c-2 -2 -42 -5 -90 -8 -48 -2 -95 -6 -104 -9 -9 -3 -33 -8
-52 -11 -19 -3 -55 -13 -80 -22 -25 -8 -83 -17 -130 -18 -47 -2 -99 -8 -117
-13 -17 -6 -33 -8 -36 -6 -2 3 -17 -1 -33 -7 -16 -6 -45 -13 -64 -14 -59 -5
-104 -13 -132 -24 -16 -6 -28 -8 -28 -6 0 2 -12 0 -27 -6 -31 -12 -78 -18
-164 -23 -31 -2 -62 -6 -68 -10 -7 -4 -34 -9 -60 -11 -27 -2 -57 -8 -67 -13
-11 -5 -47 -17 -82 -26 -34 -9 -75 -25 -91 -37 -16 -11 -45 -22 -64 -24 -20
-2 -50 -11 -67 -20 -46 -24 -84 -27 -338 -29 -218 -1 -235 -2 -248 -20 -12
-17 -12 -23 1 -42 19 -30 20 -29 -17 -31 -30 -1 -63 -28 -53 -43 3 -4 -11 -15
-30 -24 -19 -9 -35 -21 -35 -26 0 -5 -9 -12 -21 -15 -33 -11 -65 -103 -48
-137 7 -13 0 -23 -29 -46 -20 -16 -47 -34 -59 -41 -25 -13 -31 -52 -10 -69 6
-5 24 -9 40 -7 15 2 27 -2 28 -8 2 -21 -3 -52 -10 -62 -3 -5 -6 -17 -5 -25 7
-62 45 -88 72 -48 9 12 17 25 18 28 4 23 19 40 35 40 10 0 34 16 53 35 20 19
39 35 43 35 4 0 8 -62 7 -137 0 -130 1 -140 27 -188 20 -38 24 -56 18 -73 -5
-13 -6 -28 -3 -34 3 -5 -4 -20 -16 -34 -24 -25 -29 -49 -33 -189 -2 -45 -7
-87 -12 -95 -5 -8 -10 -96 -10 -195 -1 -130 -5 -187 -15 -205 -7 -13 -14 -44
-16 -69 -1 -27 -11 -56 -25 -75 -20 -26 -23 -45 -26 -131 -1 -55 -5 -129 -8
-165 -4 -36 -7 -155 -8 -264 -2 -152 -6 -201 -15 -204 -20 -6 -34 -51 -38
-122 -4 -77 -10 -125 -28 -210 -10 -47 -41 -100 -58 -100 -29 0 -35 -34 -31
-185 8 -360 8 -623 0 -650 -5 -16 -10 -52 -12 -79 -1 -32 -8 -52 -18 -58 -24
-13 -34 -63 -32 -162 2 -94 14 -120 53 -109 16 4 17 -13 16 -224 0 -140 3
-236 10 -248 11 -22 15 -57 19 -194 3 -88 5 -96 30 -117 15 -13 36 -21 47 -19
12 2 20 -2 20 -9 0 -36 78 -56 104 -27 8 9 16 31 18 49 1 18 7 32 13 33 5 0
27 2 47 3 69 3 69 6 81 361 3 66 6 120 7 120 1 0 4 34 5 75 2 41 9 93 15 115
15 51 19 127 23 402 3 200 5 224 22 243 10 11 19 30 21 43 1 12 3 22 4 22 1 0
3 15 5 33 2 18 8 39 13 45 32 38 41 146 22 244 -9 50 -7 820 3 908 3 28 9 61
14 75 5 14 9 109 9 212 -1 186 -1 187 20 184 12 -2 30 -9 40 -14 21 -10 96
-45 104 -47 22 -7 48 -21 63 -34 10 -8 33 -16 52 -17 18 -1 46 -9 62 -17 16
-9 38 -14 49 -13 10 2 37 -5 59 -15 22 -9 56 -20 77 -23 20 -3 60 -14 90 -25
29 -11 69 -23 88 -27 58 -13 320 -11 374 2 27 7 54 10 60 6 6 -3 27 -7 46 -8
19 -1 49 -5 65 -9 54 -12 99 -11 150 3 34 10 50 11 53 4 2 -6 10 -8 18 -5 8 3
21 -1 30 -8 11 -9 50 -14 122 -14 97 -1 110 1 165 27 40 20 78 30 116 32 89 3
152 39 264 151 59 57 108 98 122 99 33 4 114 76 165 146 24 33 47 60 52 60 4
0 8 9 8 20 0 11 11 32 25 47 14 16 32 37 40 48 9 11 14 14 13 7 -2 -8 6 -20
17 -28 32 -21 64 4 60 48 -4 43 2 50 26 37 16 -8 25 -7 39 6 10 9 18 24 18 33
0 10 3 46 7 82 8 65 9 707 2 875 -4 84 -14 183 -24 230 -2 11 -6 72 -9 135 -3
63 -8 122 -11 130 -4 8 -7 18 -7 22 -2 14 -47 68 -57 68 -6 0 -30 19 -54 43
-100 96 -96 94 -162 95 -66 1 -103 14 -103 36 0 22 -25 36 -69 41 -23 2 -47 8
-54 12 -11 7 -304 13 -311 6z m-1060 -260 c-3 -3 -22 -6 -43 -8 l-38 -3 30 13
c26 11 63 10 51 -2z m1424 -93 c0 -4 10 -20 22 -35 13 -17 23 -45 24 -69 4
-80 16 -105 50 -110 15 -2 19 -12 20 -52 1 -27 11 -70 23 -97 12 -26 20 -51
17 -56 -3 -5 1 -28 9 -51 8 -23 15 -54 15 -69 0 -32 33 -88 69 -118 25 -21 26
-22 7 -36 -16 -12 -20 -28 -22 -93 -1 -74 -12 -183 -19 -194 -2 -3 -6 -30 -10
-60 -4 -30 -12 -63 -17 -74 -10 -18 -16 -47 -21 -91 -1 -10 -9 -27 -18 -36 -9
-9 -35 -48 -58 -85 -34 -59 -45 -86 -50 -125 -1 -3 -14 -4 -31 -1 -24 3 -32 0
-40 -20 -6 -13 -31 -34 -56 -47 -24 -13 -53 -39 -65 -57 -11 -19 -26 -34 -33
-34 -28 0 -119 -124 -118 -160 l1 -26 -137 -1 c-222 -2 -383 -10 -392 -19 -4
-5 -10 -18 -12 -29 -4 -23 -46 -27 -93 -9 -16 6 -50 10 -75 9 -25 -1 -54 3
-65 9 -11 5 -36 10 -55 11 -20 1 -41 4 -48 9 -6 4 -44 9 -84 12 -98 6 -120 11
-189 45 -32 16 -61 28 -63 27 -2 -2 -12 4 -22 13 -11 9 -35 22 -54 29 -19 8
-57 27 -85 43 -27 16 -68 38 -90 48 -22 11 -54 28 -72 38 -17 11 -67 34 -110
52 -46 19 -91 46 -110 65 -18 19 -37 34 -42 34 -5 0 -19 16 -31 35 -12 19 -25
35 -28 35 -4 0 -18 27 -31 59 -18 45 -24 80 -24 140 -1 45 -4 81 -8 81 -3 0
-4 11 -1 25 2 14 0 25 -5 25 -8 0 -9 194 -2 410 4 114 -7 185 -32 214 -12 14
-29 26 -37 26 -17 0 -8 13 11 16 7 1 39 5 72 9 33 4 146 27 250 52 105 25 249
58 320 74 72 15 158 36 192 46 69 20 157 77 150 97 -11 29 89 40 358 41 l260
1 23 -24 c15 -16 29 -22 40 -17 9 4 22 8 27 9 6 1 19 7 30 12 11 6 38 10 60 9
22 -1 46 3 53 9 8 6 90 11 195 13 224 3 216 3 221 12 6 10 36 10 36 1z m-2450
-64 c0 -2 -7 -6 -15 -10 -8 -3 -15 -1 -15 4 0 6 7 10 15 10 8 0 15 -2 15 -4z
m875 -46 c-3 -5 -14 -10 -23 -9 -14 0 -13 2 3 9 27 11 27 11 20 0z m-105 -21
c0 -3 -14 -9 -32 -11 -26 -4 -28 -3 -15 7 18 13 47 16 47 4z m-888 -99 c-12
-11 -24 -20 -28 -20 -4 0 1 9 11 20 10 11 23 20 28 20 6 0 1 -9 -11 -20z m134
-846 c1 -9 0 -13 -4 -10 -3 4 -7 14 -8 22 -1 9 0 13 4 10 3 -4 7 -14 8 -22z
m2608 -379 c-4 -8 -11 -15 -16 -15 -6 0 -5 6 2 15 7 8 14 15 16 15 2 0 1 -7
-2 -15z m-2394 -25 c0 -5 -2 -10 -4 -10 -3 0 -8 5 -11 10 -3 6 -1 10 4 10 6 0
11 -4 11 -10z m74 -126 c3 -8 2 -12 -4 -9 -6 3 -10 10 -10 16 0 14 7 11 14 -7z
m296 -345 c0 -4 -7 -6 -15 -3 -8 4 -15 10 -15 15 0 4 7 6 15 3 8 -4 15 -10 15
-15z m-524 -558 c-1 -27 -4 -48 -7 -46 -3 2 -4 21 -3 42 2 47 3 53 7 53 2 0 3
-22 3 -49z m-303 -466 c-3 -9 -8 -14 -10 -11 -3 3 -2 9 2 15 9 16 15 13 8 -4z
m-46 -364 c0 -11 -5 -18 -9 -15 -4 3 -5 11 -1 19 7 21 12 19 10 -4z m220
-1153 c-3 -8 -6 -5 -6 6 -1 11 2 17 5 13 3 -3 4 -12 1 -19z"/>
</g>
</svg>
